<svg version="1" xmlns="http://www.w3.org/2000/svg" width="2173.333" height="2173.333" viewBox="0 0 1630.000000 1630.000000"><path d="M151 1.5C146.4 3 130.7 14 123.6 20.7c-6 5.8-9.1 13.2-9 22.3 0 5.4.6 8.8 2.1 12.1 2.9 6.6 274.2 367.8 278.9 371.5 5.9 4.6 11.5 6.4 19.7 6.4 9 0 13.7-2.1 26.7-12 15.9-12 19.3-17.5 19.4-30.6 0-6.6-.4-8.9-2.4-13C456.7 373 189 15 183.4 8.9c-1.3-1.4-4.7-3.8-7.6-5.3C169.4.1 158.1-.8 151 1.5zM518.6 28.6c-4.2 1.5-20.5 13.2-26.9 19.3-2.1 2-4.8 5.4-6 7.6-2.6 5-3.1 15-1.1 20.8 1.6 4.4 22.7 33.3 27.8 37.9 7.4 6.8 21.6 7.9 30.6 2.5 6.7-4 23.1-17 25.8-20.3 5.2-6.5 6.8-15.7 4.3-24.9-1.2-4.6-24.5-36.2-28.8-39.2-7.4-5.2-17.7-6.6-25.7-3.7zM609 142.9c-3.4 1.1-6.8 3.3-19 12.4-16.4 12.3-19.2 15.6-20.6 24.5-1.4 8.8.4 12.2 20.7 39.3 10.4 14 19.5 26.1 20.2 26.9.6.8 5.7 7.6 11.2 15 5.5 7.4 10.4 13.9 10.8 14.5.7.9 9.8 12.9 49.2 65.5 29.2 38.9 37.4 49.6 39.6 51.6 6.3 5.6 17.5 7 25.1 3.1 4.1-2.1 21.3-14.3 24.7-17.5.8-.7 2.5-2 3.8-2.9 6.2-4.1 10-17.5 7.3-25.8-.7-2.2-32.3-45.1-74.9-101.8-40.5-53.9-74-98.5-74.6-99.1-.5-.7-2.7-2.2-4.7-3.4-4-2.5-14.4-3.8-18.8-2.3zM58.7 340.2c-5.4 1.1-9 3.2-19.9 11.5-13 9.8-16.9 16.5-16.9 28.6 0 3.6.8 7.4 2.2 10.4 1.5 3.3 60 82.9 68.2 92.8.7.9 115 153.2 119.5 159.3.9 1.3 4.5 6 8 10.5 3.4 4.5 7 9.3 8 10.7 3.2 4.8 38.5 51.5 40.6 53.8 2.5 2.8 9.4 7.1 12.8 7.8 11 2.6 18.8.5 31.2-8.5 11.3-8.2 16.2-13.3 18.5-19.6 2.6-6.7 2.3-17.4-.6-23.1-1.9-3.5-11-16.4-15.7-22-.8-1.1-6.3-8.4-12.2-16.4-5.9-8-11-14.7-11.3-15-.3-.3-1.7-2.1-3.1-4-1.3-1.9-2.8-4-3.3-4.5-.4-.6-9.4-12.5-19.9-26.5-10.4-14-19.9-26.6-20.9-28-1.1-1.4-7.9-10.4-15.1-20-7.2-9.6-13.9-18.6-14.9-20-1.1-1.4-3.8-5-6-8-2.3-3-5.2-6.9-6.5-8.5-1.2-1.7-14.7-19.7-29.9-40-15.2-20.4-28.6-38.1-29.6-39.5-1.1-1.4-10.5-14-21-28s-19.8-26.4-20.7-27.5c-.9-1.1-2.4-3.1-3.3-4.5-.9-1.4-2.6-3.6-3.8-4.9-1.1-1.3-2.1-2.7-2.1-3 0-.3-1.9-2.6-4.2-5-7.4-7.6-18.2-11.1-28.1-8.9zM814.9 556.4c-.2.2-4.6.7-9.6 1-5.1.4-10.3.9-11.5 1.1-1.3.2-4.5.6-7.3 1-2.7.3-7.5 1-10.5 1.5s-7.1 1.2-9 1.5c-1.9.3-10.3 2.2-18.7 4.1-36.4 8.4-76.4 24.2-108.2 42.7-9.8 5.7-30.3 18.9-34.2 22.1-1.5 1.2-3.9 3-5.5 4.1-12.1 8.6-30.3 24.3-43.9 38-44.6 44.8-77.2 97.8-97.1 158.2-4.3 13.1-10.6 36.8-11.9 44.3-.3 1.9-.8 4.6-1 6-1 4.9-1.5 7.5-2 11-.3 2-.7 4.6-1 5.9-.2 1.3-.7 4.9-1 8-.3 3.1-.8 6.5-1 7.6-2.5 12.5-2.5 70.4 0 87.5.2 1.4.7 5 1 8 .9 7.5 1.3 10.2 4 25 2.1 11.3 2.3 11.9 5.5 24.5 11.2 42.9 29.7 84.1 54.3 120.9 10.9 16.3 19.9 28 34.2 44.5 6.1 7.1 29.3 30 36 35.6 3.3 2.7 6.9 5.8 8 6.8 1.1 1.1 7.4 5.9 14 10.8s12.5 9.4 13.1 9.9c1.5 1.1 15.3 10.1 17.9 11.6 1.1.6 5.5 3.2 9.8 5.8 32.6 19.4 85.6 39.4 122.2 46 1.7.3 4.1.8 5.5 1.1 1.4.3 4.1.7 6 1 1.9.3 4.4.7 5.5.9 1.2.2 4.8.7 8 1.1 3.3.4 6.9.9 7.9 1.1 1 .2 5.4.6 9.6.9 4.3.4 9.8.8 12.1 1 6.3.6 42.5.6 48.4.1 2.8-.3 8.8-.8 13.5-1.1 4.7-.3 9.2-.8 10-1 .8-.2 3.9-.7 6.9-1 3-.4 6.1-.8 7-1 .9-.1 3.6-.6 6.1-1 2.5-.4 5.4-.9 6.5-1.1 1.1-.3 3.5-.7 5.4-1 9.4-1.6 33.4-8 47.7-12.9 89.9-30.3 165.4-90.1 214.4-170 7.3-11.9 21.4-38.9 25.9-49.5 1.3-3 2.9-6.9 3.6-8.5 9.6-22.1 21.6-65.3 25.1-90.5.2-1.9.7-4.6.9-6 .3-1.4.7-5.2 1.1-8.5.3-3.3.8-7.1 1-8.5 2.3-13.7 2.2-63.2-.1-81.5-.2-1.7-.6-5.5-1-8.5-.5-4.7-2.8-19.2-4-25.5-3.2-16.9-7.8-34.4-13.5-51.7-2.6-8-5.5-16.1-6.3-18-.8-1.8-2.9-6.9-4.7-11.3-9.7-23.7-32.1-63.2-45.2-80-20.9-26.7-25.4-31.9-42.8-49-36.2-35.8-71.9-60-120-81.8-25.4-11.4-63.6-23-91.5-27.6-3.3-.6-7.6-1.3-9.5-1.6-1.9-.4-5.1-.8-7-1-6.3-.7-13.4-1.6-17-2.1-4-.6-61.5-1.5-62.1-1zM861 829.5c26.5 5 49.5 16.7 68.1 34.6 40.6 39.1 51.1 99.8 25.9 149.9-8.7 17.4-23.8 35.2-39.6 46.8-11.1 8-29.5 17.2-39.9 19.8-1.6.4-3.2.8-3.5.9-4.6 1.3-10.9 2.5-16.5 3.2-6.2.8-29 .7-33-.2-1.6-.3-5-1-7.5-1.5-8.2-1.6-9.8-2-18.6-5.1-43-15.2-76-54.5-83.7-99.9-1.4-8.6-1.6-34.8-.2-42 7-36.8 26.1-66 56.7-86.8 14.3-9.8 35.8-17.8 54.8-20.5 4-.6 33.1 0 37 .8z"/><path d="M150.2 957.6c-34.1 5.9-63.9 31.3-74.6 63.4-2.4 7.4-3 9.6-4.5 19.3-.5 2.7-.8 117.7-.7 255.5.2 200.8.4 251.7 1.5 255.7.7 2.7 1.4 5.7 1.6 6.5.9 3.7 4.5 13 7 18 14.5 28.7 41.2 47.5 74.5 52.5 6.5 1 1363.5.9 1370-.1 3-.4 5.7-.8 6-.9.3-.1 2.1-.5 4-.9 10.4-2.3 25.1-9.1 34.5-16.1 22.1-16.4 35.5-39.3 39-66.6.9-6.9.9-496.9 0-502.9-3.4-23.1-12.2-41-27.9-56.6-12.6-12.5-27.9-21.1-45.1-25.5-8.6-2.2-10.7-2.3-52-2.5-24.8-.1-44.1.3-45.5.8-3.9 1.5-7.9 5.9-9 9.8-.5 1.9-1.1 9.6-1.5 17-.3 7.4-.7 15.1-1 17-.2 1.9-.7 7.1-1 11.5-.3 4.4-.8 8.7-1 9.5-.2.8-.6 4.4-1 7.9-.7 7.7-1 10.2-3.5 24.6-1.1 6-2.2 12.6-2.5 14.5-.3 1.9-.8 4.2-1 5-.2.8-.7 2.8-.9 4.5-.9 4.9-2.6 12.1-7.2 29.5-17.7 67.5-44.8 126.5-85.6 186.4-6.4 9.3-25.8 34.4-35 45.1-.9 1.1-2.6 3.1-3.8 4.5-17.7 20.6-45.2 47.4-68.5 66.6-51.3 42.2-113.2 77.9-171.5 98.8-5.8 2.1-11.4 4.2-12.5 4.6-6.6 2.8-40.4 12.6-54.5 15.9-19.5 4.5-47.3 9.6-57.5 10.7-2.7.2-6.1.6-7.5.9-2.3.3-9.8 1.2-19.4 2.1-24.8 2.4-88.6 2.4-103.6 0-1.4-.2-5.4-.7-9-1-28.1-2.6-74.9-11.5-100-19.1-11.4-3.4-40.7-12.9-42-13.5-.8-.5-8.7-3.6-17.5-7-14.7-5.7-53-23.9-68.5-32.6-26.3-14.7-66.4-42.3-87-60-1.4-1.2-6.1-5.2-10.5-9-19.6-16.7-48.6-46.1-63.5-64.4-1.9-2.3-3.9-4.8-4.5-5.4-8-8.9-24.4-31.1-37-50.1-40-60.3-70.8-134-84.4-201.5-.6-3-1.4-6.6-1.7-8-.3-1.4-.7-3.4-.8-4.5-.2-1.1-.9-5.2-1.6-9-.6-3.9-1.3-8.4-1.6-10-.2-1.7-.6-4.1-.9-5.4-.2-1.3-.7-4.9-1-8-.4-3.1-.8-6.7-1-8.1-.2-1.4-.7-5.7-1-9.5-.4-3.9-.8-8.4-1-10.1-.4-3.2-1.5-23.7-1.9-34-.3-6.8-2.8-11.9-7.4-15-2.5-1.8-5.5-1.9-45.2-2-30 0-44.7.3-49.8 1.2z"/></svg>